# xmcd CD database file
#
# Track frame offsets:
#	150
#	5995
#	24698
#	43045
#	65345
#	85993
#	88493
#	106035
#	124558
#	142948
#	167900
#	189565
#	192283
#	212878
#	233793
#
# Disc length: 3403 seconds
#
# Revision: 2
# Processed by: cddbd v1.5.2PL0 Copyright (c) Steve Scherf et al.
# Submitted via: CDex 1.70beta2
#
DISCID=d20d490f
DTITLE=Prophet Jones - Prophet Jones
DYEAR=2001
DGENRE=R&B
TTITLE0=Come Inside (Interlude)
TTITLE1=Woof
TTITLE2=I Know You Wanna
TTITLE3=Lifetime
TTITLE4=You Gotta Believe
TTITLE5=Prophet Jones (Interlude)
TTITLE6=All I Do
TTITLE7=Doin Me
TTITLE8=Hate On Me
TTITLE9=Cry Together
TTITLE10=You Can't
TTITLE11=Can I Take You Home (Interlude)
TTITLE12=Can I Take You Home
TTITLE13=I Can't Deny
TTITLE14=Come Inside
EXTD=YEAR: 2001
EXTT0=
EXTT1=
EXTT2=
EXTT3=
EXTT4=
EXTT5=
EXTT6=
EXTT7=
EXTT8=
EXTT9=
EXTT10=
EXTT11=
EXTT12=
EXTT13=
EXTT14=
PLAYORDER=
